<?xml version="1.0" encoding="UTF-8" standalone="no"?>
<svg
   xmlns:dc="http://purl.org/dc/elements/1.1/"
   xmlns:cc="http://creativecommons.org/ns#"
   xmlns:rdf="http://www.w3.org/1999/02/22-rdf-syntax-ns#"
   xmlns:svg="http://www.w3.org/2000/svg"
   xmlns="http://www.w3.org/2000/svg"
   xmlns:sodipodi="http://sodipodi.sourceforge.net/DTD/sodipodi-0.dtd"
   xmlns:inkscape="http://www.inkscape.org/namespaces/inkscape"
   id="Layer_1"
   x="0px"
   y="0px"
   viewBox="0 0 398.20776 439.88074"
   version="1.1"
   inkscape:version="0.91 r13725"
   sodipodi:docname="logo-jest.svg"
   width="398.20776"
   height="439.88074">
  <metadata
     id="metadata27">
    <rdf:RDF>
      <cc:Work
         rdf:about="">
        <dc:format>image/svg+xml</dc:format>
        <dc:type
           rdf:resource="http://purl.org/dc/dcmitype/StillImage" />
        <dc:title></dc:title>
      </cc:Work>
    </rdf:RDF>
  </metadata>
  <defs
     id="defs25" />
  <sodipodi:namedview
     pagecolor="#ffffff"
     bordercolor="#666666"
     borderopacity="1"
     objecttolerance="10"
     gridtolerance="10"
     guidetolerance="10"
     inkscape:pageopacity="0"
     inkscape:pageshadow="2"
     inkscape:window-width="883"
     inkscape:window-height="480"
     id="namedview23"
     showgrid="false"
     fit-margin-top="0"
     fit-margin-left="0"
     fit-margin-right="0"
     fit-margin-bottom="0"
     inkscape:zoom="0.26757812"
     inkscape:cx="381.48109"
     inkscape:cy="218.88073"
     inkscape:window-x="0"
     inkscape:window-y="0"
     inkscape:window-maximized="0"
     inkscape:current-layer="Layer_1" />
  <g
     id="g4155"
     transform="translate(-130.51891,-163)">
    <path
       id="path3"
       style="fill:#c21325;stroke:#ffffff;stroke-width:20"
       d="m 465.391,381.102 c -0.54,0.328 -18.349,-2.66 -40.665,-4.171 -18.225,-1.235 -39.456,-1.188 -56.744,-0.017 -14.019,0.949 -32.438,-6.098 -34.639,2.277 -8.238,31.351 -25.963,58.655 -48.511,79.928 -16.963,16.003 -36.377,28.138 -57.375,35.615 -24.999,-12.842 -36.805,-41.404 -26.152,-66.447 8.449,-19.863 18.28,-41.74 0.13,-46.745 -13.213,-3.644 -20.468,9.013 -25.547,22.545 -9.73,25.923 -28.219,52.748 -33.488,84.521 -5.562,33.542 -0.018,69.147 28.992,89.253 67.562,46.826 140.9,-29.028 218.225,-48.096 28.024,-6.911 58.785,-5.797 83.475,-20.097 18.541,-10.739 30.764,-28.535 34.233,-48.516 5.58,-32.137 -11.139,-64.066 -41.934,-80.05 z"
       inkscape:connector-curvature="0" />
    <path
       id="path5"
       d="m 333.343,379.191 c -8.238,31.351 -25.963,58.655 -48.511,79.928 -16.963,16.003 -36.377,28.138 -57.376,35.615 -24.999,-12.842 -36.805,-41.404 -26.152,-66.447 8.449,-19.863 18.28,-41.74 0.13,-46.745 -13.213,-3.644 -20.468,9.013 -25.547,22.545 -9.73,25.923 -28.219,52.748 -33.488,84.521 -5.562,33.542 -0.018,69.147 28.992,89.253 67.562,46.826 140.9,-29.028 218.226,-48.096 28.024,-6.911 58.785,-5.797 83.475,-20.097 18.541,-10.739 30.764,-28.535 34.233,-48.515 5.58,-32.137 -11.139,-64.066 -41.934,-80.05"
       inkscape:connector-curvature="0"
       style="fill:none;stroke:#ffffff;stroke-width:20" />
    <polygon
       id="polygon7"
       style="fill:#c21325"
       points="275.789,173 340.732,364.641 395.364,254.17 449.685,364.982 514.778,173 " />
    <polygon
       id="polygon9"
       points="275.789,173 340.732,364.641 395.364,254.17 449.685,364.982 514.777,173 "
       style="fill:none;stroke:#ffffff;stroke-width:20" />
    <circle
       id="circle11"
       style="fill:#c21325"
       r="40.945"
       cy="379.58301"
       cx="329.45999" />
    <circle
       id="circle13"
       r="40.945"
       cy="379.58301"
       cx="329.45999"
       style="fill:none;stroke:#ffffff;stroke-width:20" />
    <circle
       id="circle15"
       style="fill:#c21325;stroke:#ffffff;stroke-width:20"
       r="40.945"
       cy="379.58301"
       cx="462.84399" />
    <circle
       id="circle17"
       r="40.945"
       cy="379.58301"
       cx="462.84399"
       style="fill:none;stroke:#ffffff;stroke-width:20" />
    <circle
       id="circle19"
       style="fill:#c21325"
       r="40.945"
       cy="379.87701"
       cx="195.571" />
    <circle
       id="circle21"
       r="40.945"
       cy="379.87701"
       cx="195.571"
       style="fill:none;stroke:#ffffff;stroke-width:20" />
  </g>
</svg>
