<?xml version="1.0" encoding="UTF-8" standalone="no"?>
<svg
   xmlns="http://www.w3.org/2000/svg"
   version="1.1"
   x="0px"
   y="0px"
   width="213.28999"
   height="37.123001"
   viewBox="0 0 213.28999 37.123001">
     <g id="Layer_1"
     transform="translate(-45.594,-109.302)"><g
       id="g5"><path
         d="m 87.348,114.674 c 0.828,0 3.779,0.072 3.779,3.204 l 0,1.368 7.415,0 c 0,0 -0.036,3.024 -2.231,3.024 l -5.184,0 0,7.919 c 0,2.483 0.792,4.031 3.563,4.031 2.304,0 4.428,-1.116 4.428,-3.779 0.828,1.044 1.26,1.979 1.26,2.916 0,2.34 -2.52,3.888 -6.155,3.888 -4.284,0 -6.875,-2.232 -6.875,-6.047 l 0,-16.524 z"
         id="path7"
         style="fill:#3d3d3d" /><path
         d="m 117.514,133.176 c 0,2.556 -3.167,4.068 -7.019,4.068 -5.003,0 -8.027,-2.268 -8.027,-6.047 l 0,-7.019 c 0,-3.78 2.627,-6.047 7.487,-6.047 4.86,0 7.343,2.268 7.343,5.688 0,2.987 -1.908,5.615 -7.379,5.615 -1.188,0 -2.7,-0.216 -3.671,-0.756 l 0,1.979 c 0,2.34 1.224,3.528 4.248,3.528 3.456,0 5.975,-1.404 6.011,-3.744 0.683,1.007 1.007,1.907 1.007,2.735 z m -11.267,-7.307 c 0.18,0.072 1.908,0.504 3.204,0.504 3.023,0 4.067,-0.936 4.067,-2.556 0,-1.656 -0.972,-2.808 -3.635,-2.808 -2.88,0 -3.636,1.368 -3.636,3.708 l 0,1.152 z"
         id="path9"
         style="fill:#3d3d3d" /><path
         d="m 127.954,118.058 c 4.104,0 6.947,1.116 6.947,3.563 0,0.864 -0.36,1.908 -1.224,3.096 0,-2.34 -2.231,-3.528 -5.543,-3.528 -2.844,0 -3.888,0.792 -3.888,2.592 0,3.779 11.555,-0.684 11.555,7.811 0,3.456 -2.556,5.651 -7.847,5.651 -4.248,0 -7.343,-1.224 -7.343,-3.744 0,-0.9 0.396,-1.908 1.404,-3.132 0.072,2.844 2.808,3.816 5.939,3.816 2.268,0 3.996,-0.9 3.996,-2.772 0,-4.5 -11.555,0.18 -11.555,-7.523 0,-3.85 2.628,-5.83 7.559,-5.83 z"
         id="path11"
         style="fill:#3d3d3d" /><path
         d="m 139.403,114.674 c 0.828,0 3.779,0.072 3.779,3.204 l 0,1.368 7.415,0 c 0,0 -0.036,3.024 -2.231,3.024 l -5.184,0 0,7.919 c 0,2.483 0.792,4.031 3.563,4.031 2.304,0 4.428,-1.116 4.428,-3.779 0.828,1.044 1.26,1.979 1.26,2.916 0,2.34 -2.52,3.888 -6.155,3.888 -4.284,0 -6.875,-2.232 -6.875,-6.047 l 0,-16.524 z"
         id="path13"
         style="fill:#3d3d3d" /><path
         d="m 176.157,109.671 c 0.216,0 3.78,-0.036 3.78,2.412 l 0,25.053 c -0.864,-0.396 -1.872,-0.504 -2.664,-0.504 -1.692,0 -3.384,0.612 -5.04,0.612 -4.859,0 -7.631,-2.16 -7.631,-5.976 l 0,-7.199 c 0,-3.708 3.131,-5.939 6.731,-5.939 3.671,0 5.147,1.692 5.147,1.692 0,0 -0.324,-1.008 -0.324,-2.7 l 0,-7.451 z m 0,14.578 c 0,-1.908 -2.196,-3.24 -4.355,-3.24 -1.979,0 -3.419,1.08 -3.419,3.6 l 0,6.12 c 0,2.447 0.936,3.635 4.284,3.635 2.16,0 3.491,-0.648 3.491,-0.648 l 0,-9.467 z"
         id="path15"
         style="fill:#3d3d3d" /><path
         d="m 199.304,133.176 c 0,2.556 -3.167,4.068 -7.019,4.068 -5.003,0 -8.027,-2.268 -8.027,-6.047 l 0,-7.019 c 0,-3.78 2.627,-6.047 7.487,-6.047 4.86,0 7.343,2.268 7.343,5.688 0,2.987 -1.908,5.615 -7.379,5.615 -1.188,0 -2.7,-0.216 -3.671,-0.756 l 0,1.979 c 0,2.34 1.224,3.528 4.248,3.528 3.456,0 5.975,-1.404 6.011,-3.744 0.683,1.007 1.007,1.907 1.007,2.735 z m -11.266,-7.307 c 0.18,0.072 1.908,0.504 3.204,0.504 3.023,0 4.067,-0.936 4.067,-2.556 0,-1.656 -0.972,-2.808 -3.635,-2.808 -2.88,0 -3.636,1.368 -3.636,3.708 l 0,1.152 z"
         id="path17"
         style="fill:#3d3d3d" /><path
         d="m 217.771,133.212 c 0,2.592 -3.204,4.032 -6.983,4.032 -4.859,0 -7.883,-2.232 -7.883,-6.047 l 0,-7.019 c 0,-3.78 2.916,-6.047 7.775,-6.047 3.023,0 6.551,1.116 6.551,3.923 0,0.9 -0.36,1.908 -1.188,3.096 0,-2.735 -2.412,-3.996 -4.823,-3.996 -2.988,0 -4.536,1.008 -4.536,3.78 l 0,5.507 c 0,2.556 1.368,3.779 4.463,3.779 3.132,0 5.615,-1.44 5.615,-3.744 0.722,1.044 1.009,1.944 1.009,2.736 z"
         id="path19"
         style="fill:#3d3d3d" /><path
         d="m 237.248,136.704 c 0,0 -1.476,0.36 -2.088,0.36 -4.536,0 -1.764,-8.063 -10.007,-9.035 l 0,9.035 c 0,0 -3.779,0 -3.779,-2.052 l 0,-25.413 c 0,0 3.779,0 3.779,2.052 l 0,13.426 c 2.7,-0.18 3.996,-1.8 5.759,-5.147 0.468,-0.864 1.44,-1.62 3.24,-1.62 0.576,0 1.224,0.108 1.8,0.288 -1.728,2.412 -3.348,6.911 -6.695,7.775 5.795,1.656 6.155,7.163 7.991,10.331 z"
         id="path21"
         style="fill:#3d3d3d" /><path
         d="m 248.336,143.687 c -0.36,0.324 -1.188,1.224 -2.52,1.224 -3.708,0 -6.947,-7.919 -6.947,-17.422 0,-9.503 3.24,-17.35 6.947,-17.35 1.332,0 2.16,0.9 2.52,1.224 -3.419,0.36 -5.579,7.631 -5.579,16.054 0,8.566 2.16,15.91 5.579,16.27 z"
         id="path23"
         style="fill:#3d3d3d" /><path
         d="m 249.417,111.363 c 0.36,-0.324 1.188,-1.224 2.52,-1.224 3.708,0 6.947,7.847 6.947,17.35 0,9.503 -3.24,17.422 -6.947,17.422 -1.332,0 -2.16,-0.9 -2.52,-1.224 3.419,-0.36 5.579,-7.703 5.579,-16.27 0.001,-8.423 -2.159,-15.694 -5.579,-16.054 z"
         id="path25"
         style="fill:#3d3d3d" /></g><g
       id="g27"><path
         d="m 67.013,123.747 c 0,-1.845 -0.405,-3.15 -3.645,-3.15 -3.015,0 -5.94,0.99 -6.435,4.635 -1.44,-1.575 -2.025,-2.97 -2.025,-4.185 0,-3.105 4.005,-4.95 8.459,-4.95 6.435,0 9.495,2.97 9.495,7.919 l 0,5.4 c 0,0.9 -0.225,4.545 -6.57,5.265 0,0 0.855,-1.35 0.855,-4.185 l 0,-2.25 c -1.26,2.43 -7.74,0.945 -7.74,4.725 0,2.115 2.7,3.285 6.39,3.285 5.714,0 10.08,-1.485 10.08,-7.65 l 0,-6.885 c 0,-4.32 -2.43,-8.145 -8.91,-8.145 l -6.705,0 c -6.39,0 -8.819,3.825 -8.819,8.145 l 0,13.14 c 0,4.365 1.935,7.919 5.265,7.919 1.98,0 3.51,-0.72 3.51,-0.72 0,0 -0.405,4.365 -5.939,4.365 -5.175,0 -8.685,-5.175 -8.685,-10.979 l 0,-14.31 c 0,-6.615 5.49,-11.834 14.714,-11.834 l 6.705,0 c 9.18,0 14.714,5.22 14.714,11.834 l 0,8.055 c 0,8.82 -7.56,11.16 -16.064,11.16 -6.21,0 -11.879,-1.665 -11.879,-7.29 0,-7.83 10.124,-5.58 13.229,-9.314 z"
         id="path29"
         style="fill:#e51010" /></g></g><g
     id="Layer_3"
     display="none"
     style="display:none"
     transform="translate(-45.594,-109.302)"><g
       display="inline"
       id="g32"
       style="display:inline"><path
         d="m 171.764,103.418 c 0,-10.508 -2.307,-17.94 -20.759,-17.94 -17.171,0 -33.83,5.639 -36.649,26.397 -8.201,-8.97 -11.533,-16.915 -11.533,-23.834 0,-17.684 22.81,-28.191 48.182,-28.191 36.649,0 54.077,16.915 54.077,45.106 l 0,30.754 c 0,5.125 -1.282,25.885 -37.418,29.985 0,0 4.87,-7.688 4.87,-23.834 l 0,-12.814 c -7.176,13.839 -44.082,5.382 -44.082,26.91 0,12.045 15.377,18.709 36.393,18.709 32.548,0 57.408,-8.458 57.408,-43.569 l 0,-39.212 c 0,-24.604 -13.839,-46.388 -50.745,-46.388 l -38.187,0 c -36.393,0 -50.232,21.784 -50.232,46.388 l 0,74.836 c 0,24.86 11.021,45.106 29.986,45.106 11.276,0 19.99,-4.101 19.99,-4.101 0,0 -2.307,24.86 -33.83,24.86 -29.473,0 -49.463,-29.473 -49.463,-62.534 l 0,-81.499 c 0,-37.674 31.267,-67.403 83.806,-67.403 l 38.187,0 c 52.283,0 83.806,29.729 83.806,67.403 l 0,45.875 c 0,50.232 -43.056,63.559 -91.494,63.559 -35.368,0 -67.66,-9.482 -67.66,-41.518 -0.001,-44.594 57.664,-31.78 75.347,-53.051 z"
         id="path34"
         style="fill:#e51010" /></g></g><g
     id="Layer_2"
     display="none"
     style="display:none"
     transform="translate(-45.594,-109.302)"><rect
       display="inline"
       stroke-miterlimit="10"
       width="303"
       height="255"
       id="rect37"
       x="0"
       y="0"
       style="display:inline;fill:none;stroke:#000000;stroke-miterlimit:10" /></g></svg>
