<?xml version="1.0" encoding="utf-8"?>
<!-- Generator: Adobe Illustrator 15.0.0, SVG Export Plug-In . SVG Version: 6.00 Build 0)  -->
<!DOCTYPE svg PUBLIC "-//W3C//DTD SVG 1.1//EN" "http://www.w3.org/Graphics/SVG/1.1/DTD/svg11.dtd">
<svg version="1.1" xmlns="http://www.w3.org/2000/svg" xmlns:xlink="http://www.w3.org/1999/xlink" x="0px" y="0px" width="303px"
	 height="255px" viewBox="0 0 303 255" enable-background="new 0 0 303 255" xml:space="preserve">
<g id="Layer_1" display="none">
	<g display="inline">
		<path fill="#3D3D3D" d="M87.348,114.674c0.828,0,3.779,0.072,3.779,3.204v1.368h7.415c0,0-0.036,3.024-2.231,3.024h-5.184v7.919
			c0,2.483,0.792,4.031,3.563,4.031c2.304,0,4.428-1.116,4.428-3.779c0.828,1.044,1.26,1.979,1.26,2.916
			c0,2.34-2.52,3.888-6.155,3.888c-4.284,0-6.875-2.232-6.875-6.047V114.674z"/>
		<path fill="#3D3D3D" d="M117.514,133.176c0,2.556-3.167,4.068-7.019,4.068c-5.003,0-8.027-2.268-8.027-6.047v-7.019
			c0-3.78,2.627-6.047,7.487-6.047s7.343,2.268,7.343,5.688c0,2.987-1.908,5.615-7.379,5.615c-1.188,0-2.7-0.216-3.671-0.756v1.979
			c0,2.34,1.224,3.528,4.248,3.528c3.456,0,5.975-1.404,6.011-3.744C117.19,131.448,117.514,132.348,117.514,133.176z
			 M106.247,125.869c0.18,0.072,1.908,0.504,3.204,0.504c3.023,0,4.067-0.936,4.067-2.556c0-1.656-0.972-2.808-3.635-2.808
			c-2.88,0-3.636,1.368-3.636,3.708V125.869z"/>
		<path fill="#3D3D3D" d="M127.954,118.058c4.104,0,6.947,1.116,6.947,3.563c0,0.864-0.36,1.908-1.224,3.096
			c0-2.34-2.231-3.528-5.543-3.528c-2.844,0-3.888,0.792-3.888,2.592c0,3.779,11.555-0.684,11.555,7.811
			c0,3.456-2.556,5.651-7.847,5.651c-4.248,0-7.343-1.224-7.343-3.744c0-0.9,0.396-1.908,1.404-3.132
			c0.072,2.844,2.808,3.816,5.939,3.816c2.268,0,3.996-0.9,3.996-2.772c0-4.5-11.555,0.18-11.555-7.523
			C120.395,120.038,123.023,118.058,127.954,118.058z"/>
		<path fill="#3D3D3D" d="M139.403,114.674c0.828,0,3.779,0.072,3.779,3.204v1.368h7.415c0,0-0.036,3.024-2.231,3.024h-5.184v7.919
			c0,2.483,0.792,4.031,3.563,4.031c2.304,0,4.428-1.116,4.428-3.779c0.828,1.044,1.26,1.979,1.26,2.916
			c0,2.34-2.52,3.888-6.155,3.888c-4.284,0-6.875-2.232-6.875-6.047V114.674z"/>
		<path fill="#3D3D3D" d="M176.157,109.671c0.216,0,3.78-0.036,3.78,2.412v25.053c-0.864-0.396-1.872-0.504-2.664-0.504
			c-1.692,0-3.384,0.612-5.04,0.612c-4.859,0-7.631-2.16-7.631-5.976v-7.199c0-3.708,3.131-5.939,6.731-5.939
			c3.671,0,5.147,1.692,5.147,1.692s-0.324-1.008-0.324-2.7V109.671z M176.157,124.249c0-1.908-2.196-3.24-4.355-3.24
			c-1.979,0-3.419,1.08-3.419,3.6v6.12c0,2.447,0.936,3.635,4.284,3.635c2.16,0,3.491-0.648,3.491-0.648V124.249z"/>
		<path fill="#3D3D3D" d="M199.304,133.176c0,2.556-3.167,4.068-7.019,4.068c-5.003,0-8.027-2.268-8.027-6.047v-7.019
			c0-3.78,2.627-6.047,7.487-6.047s7.343,2.268,7.343,5.688c0,2.987-1.908,5.615-7.379,5.615c-1.188,0-2.7-0.216-3.671-0.756v1.979
			c0,2.34,1.224,3.528,4.248,3.528c3.456,0,5.975-1.404,6.011-3.744C198.98,131.448,199.304,132.348,199.304,133.176z
			 M188.038,125.869c0.18,0.072,1.908,0.504,3.204,0.504c3.023,0,4.067-0.936,4.067-2.556c0-1.656-0.972-2.808-3.635-2.808
			c-2.88,0-3.636,1.368-3.636,3.708V125.869z"/>
		<path fill="#3D3D3D" d="M217.771,133.212c0,2.592-3.204,4.032-6.983,4.032c-4.859,0-7.883-2.232-7.883-6.047v-7.019
			c0-3.78,2.916-6.047,7.775-6.047c3.023,0,6.551,1.116,6.551,3.923c0,0.9-0.36,1.908-1.188,3.096c0-2.735-2.412-3.996-4.823-3.996
			c-2.988,0-4.536,1.008-4.536,3.78v5.507c0,2.556,1.368,3.779,4.463,3.779c3.132,0,5.615-1.44,5.615-3.744
			C217.484,131.52,217.771,132.42,217.771,133.212z"/>
		<path fill="#3D3D3D" d="M237.248,136.704c0,0-1.476,0.36-2.088,0.36c-4.536,0-1.764-8.063-10.007-9.035v9.035
			c0,0-3.779,0-3.779-2.052v-25.413c0,0,3.779,0,3.779,2.052v13.426c2.7-0.18,3.996-1.8,5.759-5.147
			c0.468-0.864,1.44-1.62,3.24-1.62c0.576,0,1.224,0.108,1.8,0.288c-1.728,2.412-3.348,6.911-6.695,7.775
			C235.052,128.029,235.412,133.536,237.248,136.704z"/>
		<path fill="#3D3D3D" d="M248.336,143.687c-0.36,0.324-1.188,1.224-2.52,1.224c-3.708,0-6.947-7.919-6.947-17.422
			s3.24-17.35,6.947-17.35c1.332,0,2.16,0.9,2.52,1.224c-3.419,0.36-5.579,7.631-5.579,16.054
			C242.757,135.983,244.917,143.327,248.336,143.687z"/>
		<path fill="#3D3D3D" d="M249.417,111.363c0.36-0.324,1.188-1.224,2.52-1.224c3.708,0,6.947,7.847,6.947,17.35
			s-3.24,17.422-6.947,17.422c-1.332,0-2.16-0.9-2.52-1.224c3.419-0.36,5.579-7.703,5.579-16.27
			C254.997,118.994,252.837,111.723,249.417,111.363z"/>
	</g>
	<g display="inline">
		<path fill="#E51010" d="M67.013,123.747c0-1.845-0.405-3.15-3.645-3.15c-3.015,0-5.94,0.99-6.435,4.635
			c-1.44-1.575-2.025-2.97-2.025-4.185c0-3.105,4.005-4.95,8.459-4.95c6.435,0,9.495,2.97,9.495,7.919v5.4
			c0,0.9-0.225,4.545-6.57,5.265c0,0,0.855-1.35,0.855-4.185v-2.25c-1.26,2.43-7.74,0.945-7.74,4.725c0,2.115,2.7,3.285,6.39,3.285
			c5.714,0,10.08-1.485,10.08-7.65v-6.885c0-4.32-2.43-8.145-8.91-8.145h-6.705c-6.39,0-8.819,3.825-8.819,8.145v13.14
			c0,4.365,1.935,7.919,5.265,7.919c1.98,0,3.51-0.72,3.51-0.72s-0.405,4.365-5.939,4.365c-5.175,0-8.685-5.175-8.685-10.979v-14.31
			c0-6.615,5.49-11.834,14.714-11.834h6.705c9.18,0,14.714,5.22,14.714,11.834v8.055c0,8.82-7.56,11.16-16.064,11.16
			c-6.21,0-11.879-1.665-11.879-7.29C53.784,125.231,63.908,127.481,67.013,123.747z"/>
	</g>
</g>
<g id="Layer_3">
	<g>
		<path fill="#E51010" d="M171.764,103.418c0-10.508-2.307-17.94-20.759-17.94c-17.171,0-33.83,5.639-36.649,26.397
			c-8.201-8.97-11.533-16.915-11.533-23.834c0-17.684,22.81-28.191,48.182-28.191c36.649,0,54.077,16.915,54.077,45.106v30.754
			c0,5.125-1.282,25.885-37.418,29.985c0,0,4.87-7.688,4.87-23.834v-12.814c-7.176,13.839-44.082,5.382-44.082,26.91
			c0,12.045,15.377,18.709,36.393,18.709c32.548,0,57.408-8.458,57.408-43.569V91.885c0-24.604-13.839-46.388-50.745-46.388h-38.187
			c-36.393,0-50.232,21.784-50.232,46.388v74.836c0,24.86,11.021,45.106,29.986,45.106c11.276,0,19.99-4.101,19.99-4.101
			s-2.307,24.86-33.83,24.86c-29.473,0-49.463-29.473-49.463-62.534V88.553c0-37.674,31.267-67.403,83.806-67.403h38.187
			c52.283,0,83.806,29.729,83.806,67.403v45.875c0,50.232-43.056,63.559-91.494,63.559c-35.368,0-67.66-9.482-67.66-41.518
			C96.416,111.875,154.081,124.689,171.764,103.418z"/>
	</g>
</g>
<g id="Layer_2" display="none">
	<rect display="inline" fill="none" stroke="#000000" stroke-miterlimit="10" width="303" height="255"/>
</g>
</svg>
